<svg id="Layer_1" enable-background="new 0 0 509.483 509.483" height="512" viewBox="0 0 509.483 509.483" width="512" xmlns="http://www.w3.org/2000/svg"><g><path d="m235.987 282.695c-11.309-4.534-24.155.959-28.689 12.27l-68.898 171.871 17.887 15.388 24.435-2.369 23.093 5.441 45.756-174.49h-1.099c4.124-11.166-1.366-23.654-12.485-28.111z" fill="#e8e3e3"/><g><path d="m145.712 507.893c2.692 1.079 5.47 1.59 8.203 1.59 8.75 0 17.031-5.242 20.486-13.86l6.32-15.767-42.321-13.02-4.957 12.367c-4.535 11.311.958 24.156 12.269 28.69z" fill="#ffb69e"/></g><path d="m298.005 311.053-.417.605v-.606c0-12.186-9.879-22.064-22.064-22.064s-22.064 9.878-22.064 22.064v169.682l16.008 6.678h14.958l13.163-6.678h17.803z" fill="#e8e3e3"/><g><path d="m253.459 480.735v6.678c0 12.186 9.879 22.064 22.064 22.064s22.064-9.878 22.064-22.064v-6.678z" fill="#ffb69e"/></g><ellipse cx="249.667" cy="58.874" fill="#5a2d19" rx="58.873" ry="58.874" transform="matrix(.987 -.16 .16 .987 -6.207 40.753)"/><g fill="#ffb69e"><circle cx="249.681" cy="84.596" r="38.107"/><path d="m270.121 138.774-.579-3.925h-37.617c-.001 0-.219 1.755-.543 4.359-1.449 11.663 7.646 21.966 19.399 21.966 11.932 0 21.08-10.596 19.34-22.4z"/><path d="m114.548 271.222-20.658-1.042c-5.916 8.253-4.021 19.74 4.233 25.656 8.304 5.953 19.78 3.966 25.655-4.234z"/><path d="m413.272 17.595c-7.386-6.97-19.02-6.635-25.993.751l6.292 18.934 20.452 6.307c6.969-7.385 6.633-19.022-.751-25.992z"/></g><path d="m414.023 43.587-26.744-25.241-109.959 116.503h-7.778c.376 10.108-9.013 18.694-18.815 18.694-10.505 0-18.29-8.554-18.802-18.694 0 0-1.32 0-1.324 0h-14.076c-16.058 0-31.228 7.792-40.58 20.843l-82.056 114.488 29.888 21.422 76.995-107.426v126.877h97.789l-.178-144.971c.077-.078.161-.147.237-.226z" fill="#f5f0f0"/><ellipse cx="249.681" cy="52.987" fill="#5a2d19" rx="38.107" ry="22.02"/></g></svg>